# xmcd
#
# Track frame offsets:
#	150
#	14596
#	34051
#	48217
#	62698
#	84498
#	114955
#	131481
#	159292
#	176721
#	193702
#	216832
#	235346
#	253904
#
# Disc length: 3690 seconds
#
# Revision: 3
# Processed by: cddbd v1.5.1PL2 Copyright (c) Steve Scherf et al.
# Submitted via: EasyCDDAExtractor 9.0.0.1
#
DISCID=bc0e680e
DTITLE=Various Artist - The Best Arabis Songs - Memories From Tunisia
DYEAR=2002
DGENRE=Dance
TTITLE0=Darbouka
TTITLE1=Sidi Mansour
TTITLE2=Simarik
TTITLE3=Zaama Zaama
TTITLE4=Nadhra
TTITLE5=Bab Hadid
TTITLE6=El Harba Ouin
TTITLE7=Ya Rayeh
TTITLE8=Araba
TTITLE9=Ellila
TTITLE10=Amani
TTITLE11=Yeraouah
TTITLE12=Habibi Dah
TTITLE13=Hailouh
EXTD=zoltanbalint@monornet.hu
EXTT0=
EXTT1=
EXTT2=
EXTT3=
EXTT4=
EXTT5=
EXTT6=
EXTT7=
EXTT8=
EXTT9=
EXTT10=
EXTT11=
EXTT12=
EXTT13=
PLAYORDER=
